<svg width="1200pt" height="1200pt" version="1.1" viewBox="0 0 1200 1200" ><path d="m900 312c0 32.016-48 32.016-48 0s48-32.016 48 0"/><path d="m437.29 946.55c108 18 217.45 18 325.55 0 94.219-15.703 168.14-89.531 183.84-183.71 9-53.766 13.453-108.47 13.453-162.71 0-32.156-1.6875-65.297-5.0625-98.531-1.2188-12.234-11.531-21.469-23.859-21.469-6.8438 0-13.312 2.8594-17.859 7.9219-4.5469 5.0625-6.6094 11.391-6 18 3.1406 31.312 4.7812 63 4.7812 94.078 0 51.703-4.3125 103.92-12.844 154.92-12.375 73.922-70.312 132-144.37 144.24-102.7 17.156-206.86 17.156-309.71 0-74.062-12.375-132-70.312-144.37-144.24-8.5312-51-12.844-103.22-12.844-154.92 0-51.703 4.3125-103.92 12.844-154.92 12.375-73.922 70.312-132 144.37-144.24 82.312-13.781 166.08-16.453 248.86-8.0625 6.7031 0.70312 12.938-1.3125 18-6 5.0625-4.5469 7.9219-11.062 7.9219-17.859 0-12.375-9.2344-22.688-21.469-23.859-33.234-3.375-66.375-5.1562-98.531-5.1562-54.375 0-109.08 4.5469-162.71 13.453-94.219 15.703-168.14 89.531-183.84 183.84-8.8594 53.531-13.453 108.38-13.453 162.71 0 54.375 4.5469 109.22 13.453 162.84 15.703 94.219 89.531 168 183.71 183.71z"/><path d="m600 444c-86.062 0-156 69.938-156 156s69.938 156 156 156 156-69.938 156-156-69.938-156-156-156zm0 264c-59.531 0-108-48.469-108-108s48.469-108 108-108 108 48.469 108 108-48.469 108-108 108z"/></svg>