<svg xmlns="http://www.w3.org/2000/svg" xmlns:xlink="http://www.w3.org/1999/xlink" version="1.1" x="0px" y="0px" viewBox="0 0 468 585" style="enable-background:new 0 0 468 468;" xml:space="preserve">
<g>
<path d="M196.405,377.248c-25.105,0-45.529,20.355-45.529,45.376S171.3,468,196.405,468s45.529-20.355,45.529-45.376   S221.51,377.248,196.405,377.248z"/>
<path d="M348.812,377.248c-25.104,0-45.529,20.355-45.529,45.376S323.707,468,348.812,468s45.529-20.355,45.529-45.376   S373.916,377.248,348.812,377.248z"/>
<path d="M426.132,92.251c-6.519-1.186-12.764,3.153-13.941,9.676l-30.731,170.137H145.932L108.713,10.311   C107.873,4.396,102.808,0,96.833,0H43.999c-6.627,0-12,5.373-12,12c0,6.628,5.373,12,12,12h42.419l40.317,283.538   c3.661,25.747,26.067,45.163,52.119,45.163h186.984c6.627,0,12-5.373,12-12c0-6.628-5.373-12-12-12H178.854   c-14.178,0-26.369-10.551-28.358-24.542l-1.151-8.096h242.14c5.805,0,10.777-4.154,11.809-9.867l32.514-180.004   C436.986,99.671,432.654,93.429,426.132,92.251z"/>
<path d="M189.577,247.014h149.807c14.337,0,26-11.663,26-26V89.354c0-6.627-5.373-12-12-12h-36.401V52.408   C316.982,23.51,293.43,0,264.48,0s-52.502,23.51-52.502,52.408v24.946h-36.402c-6.627,0-12,5.373-12,12v131.659   C163.577,235.351,175.24,247.014,189.577,247.014z M235.979,52.408C235.979,36.744,248.765,24,264.48,24   s28.502,12.744,28.502,28.408v24.946h-57.004V52.408z"/>
<circle cx="413.338" cy="340.702" r="14"/>
</g>
</svg>