<svg  version="1.1" viewBox="-5.0 -10.0 110.0 135.0"><path d="m83.332 67.207-4.875-6.75c-3.7383-5.0508-10.832-6.1797-15.957-2.5391l-4.707 3.457c-6.8359-6.1094-12.328-13.574-16.125-21.918l4.707-3.418v0.003907c5.125-3.7344 6.2617-10.91 2.543-16.043l-4.75-6.707c-3.7188-5.1211-10.879-6.2578-16-2.543l-7.3359 5.25c-2.3555 1.6992-4.1875 4.0273-5.293 6.7109-1.1055 2.6875-1.4336 5.6328-0.95703 8.4961 4.293 25.012 20.012 46.586 42.5 58.336 2.2461 1.1445 4.7305 1.7422 7.25 1.75 3.2969-0.003907 6.5078-1.0547 9.168-3l7.293-4.9609c2.4922-1.7852 4.168-4.5 4.6445-7.5273 0.47656-3.0312-0.28125-6.1289-2.1055-8.5977zm-6.207 10.957-7.25 5.168c-2.8594 2.0859-6.6484 2.3789-9.793 0.75-20.793-10.844-35.316-30.793-39.25-53.914-0.57031-3.5078 0.87891-7.0352 3.75-9.125l7.25-5.25c2.3281-1.6719 5.5664-1.1523 7.25 1.1641l4.918 6.75c0.79297 1.125 1.1211 2.5156 0.91797 3.875-0.21484 1.3594-0.96484 2.5781-2.0859 3.375l-6.75 4.918c-1.1641 0.82422-1.5977 2.3516-1.0391 3.668 4.3984 10.949 11.441 20.641 20.5 28.207 1.125 0.875 2.7031 0.875 3.832 0l6.75-4.875c2.3164-1.6797 5.5508-1.1758 7.25 1.125l4.918 6.832c0.79297 1.125 1.1211 2.5156 0.91406 3.875-0.19922 1.3867-0.94922 2.6328-2.082 3.4609z"/></svg>