<svg xmlns:dc="http://purl.org/dc/elements/1.1/" xmlns:cc="http://creativecommons.org/ns#" xmlns:rdf="http://www.w3.org/1999/02/22-rdf-syntax-ns#" xmlns:svg="http://www.w3.org/2000/svg" xmlns="http://www.w3.org/2000/svg" xmlns:sodipodi="http://sodipodi.sourceforge.net/DTD/sodipodi-0.dtd" xmlns:inkscape="http://www.inkscape.org/namespaces/inkscape" version="1.1" x="0px" y="0px" viewBox="0 0 100 125"><g transform="translate(0,-952.36218)"><path style="font-size:medium;font-style:normal;font-variant:normal;font-weight:normal;font-stretch:normal;text-indent:0;text-align:start;text-decoration:none;line-height:normal;letter-spacing:normal;word-spacing:normal;text-transform:none;direction:ltr;block-progression:tb;writing-mode:lr-tb;text-anchor:start;baseline-shift:baseline;opacity:1;color:#000000;fill:#000000;fill-opacity:1;stroke:none;stroke-width:4;marker:none;visibility:visible;display:inline;overflow:visible;enable-background:accumulate;font-family:Sans;-inkscape-font-specification:Sans;stroke-miterlimit:4;stroke-dasharray:none" d="M 17 4 C 13.710595 4 11 6.71059 11 10 L 11 90 C 11 93.2894 13.710595 96 17 96 L 50 96 A 2.0001996 2.0001996 0 1 0 50 92 L 17 92 C 15.857405 92 15 91.1426 15 90 L 15 10 C 15 8.85741 15.857405 8 17 8 L 50 8 A 2.0001996 2.0001996 0 1 0 50 4 L 17 4 z M 68.875 27.96875 A 2.0001996 2.0001996 0 0 0 67.5 31.3125 L 82.5 48 L 33 48 A 2.0001996 2.0001996 0 0 0 32.8125 48 A 2.0021961 2.0021961 0 1 0 33 52 L 82.5 52 L 67.5 68.65625 A 2.0034926 2.0034926 0 0 0 70.5 71.3125 L 88.5 51.3125 A 2.0001996 2.0001996 0 0 0 88.5 48.65625 L 70.5 28.65625 A 2.0001996 2.0001996 0 0 0 68.875 27.96875 z " transform="translate(0,952.36218)"/></g></svg>